cover: 
http://img198.imageshack.us/img198/6958/snapshot20121108214004.jpg

Info:
Format : Matroska
Format version : Version 2
File size : 1.36 GiB
Duration : 1h 38mn
Overall bit rate mode : Variable
Overall bit rate : 1 978 Kbps
Encoded date : UTC 2012-11-08 18:30:27
Writing application : mkvmerge v5.6.0 ('Kenya Kane') built on May 27 2012 16:44:04
Writing library : libebml v1.2.3 + libmatroska v1.3.0

Video
ID : 2
Format : MPEG-4 Visual
Format profile : Advanced Simple@L5
Format settings, BVOP : Yes
Format settings, QPel : No
Format settings, GMC : No warppoints
Format settings, Matrix : Custom
Codec ID : XVID
Codec ID/Hint : XviD
Duration : 1h 38mn
Bit rate : 1 811 Kbps
Width : 720 pixels
Height : 304 pixels
Display aspect ratio : 2.35:1
Frame rate : 23.976 fps
Color space : YUV
Chroma subsampling : 4:2:0
Bit depth : 8 bits
Scan type : Progressive
Compression mode : Lossy
Bits/(Pixel*Frame) : 0.345
Stream size : 1.25 GiB (92%)
Writing library : XviD 1.2.1 (UTC 2008-12-04)
Default : Yes
Forced : No

Audio
ID : 1
Format : MPEG Audio
Format version : Version 1
Format profile : Layer 3
Mode : Joint stereo
Mode extension : MS Stereo
Muxing mode : Header stripping
Codec ID : A_MPEG/L3
Codec ID/Hint : MP3
Duration : 1h 37mn
Bit rate mode : Variable
Bit rate : 128 Kbps
Channel(s) : 2 channels
Sampling rate : 48.0 KHz
Compression mode : Lossy
Stream size : 89.4 MiB (6%)
Writing library : LAME3.90.
Encoding settings : -m j -V 4 -q 2 -lowpass 17.6 --abr 128
Default : Yes
Forced : No


Screens: 
http://s1.directupload.net/images/121108/brsp95aw.png 
http://s1.directupload.net/images/121108/4fwelvgo.png 
http://s14.directupload.net/images/121108/hnv59ffn.png 
http://s14.directupload.net/images/121108/a8s6g4g9.png6aa6236d32448b3ff41cf33144bd3afa0dc3e262
